<?xml version="1.0" standalone="no"?>
<!DOCTYPE svg PUBLIC "-//W3C//DTD SVG 20010904//EN"
 "http://www.w3.org/TR/2001/REC-SVG-20010904/DTD/svg10.dtd">
<svg version="1.0" xmlns="http://www.w3.org/2000/svg"
 width="400.000000pt" height="400.000000pt" viewBox="0 0 400.000000 400.000000"
 preserveAspectRatio="xMidYMid meet">
<metadata>
Created by potrace 1.14, written by Peter Selinger 2001-2017
</metadata>
<g transform="translate(0.000000,400.000000) scale(0.100000,-0.100000)"
fill="#000000" stroke="none">
<path d="M2191 3554 c-12 -15 -21 -29 -21 -33 0 -3 -14 -22 -31 -41 -16 -19
-58 -79 -91 -133 -60 -95 -151 -187 -184 -187 -8 0 -36 -11 -62 -24 -64 -32
-127 -50 -323 -90 -189 -40 -266 -64 -321 -102 -42 -29 -61 -27 -31 3 10 10
27 32 37 48 11 17 50 71 86 120 69 92 110 171 110 209 -1 12 -11 -4 -26 -38
-14 -32 -54 -97 -88 -145 -35 -47 -69 -97 -76 -111 -14 -26 -101 -122 -106
-117 -9 9 47 261 70 316 26 64 26 66 10 110 -10 25 -26 55 -37 66 -20 20 -20
20 -13 -5 20 -70 17 -120 -22 -311 -22 -108 -46 -207 -53 -220 -13 -23 -14
-22 -17 26 -4 70 -52 114 -165 149 -10 3 -25 20 -35 37 -35 63 -95 164 -102
169 -3 3 -16 21 -27 40 -12 19 -35 48 -52 64 -17 17 -31 36 -31 43 0 7 -6 14
-12 14 -7 1 -22 3 -34 4 -11 1 -34 11 -50 22 -16 10 -43 29 -60 40 -17 12 -47
25 -67 28 -71 14 -106 -39 -45 -68 18 -8 65 -29 105 -47 46 -21 73 -39 76 -52
3 -12 10 -17 17 -13 7 4 14 -2 17 -14 3 -12 13 -21 24 -21 11 0 32 -21 54 -55
19 -30 51 -80 71 -111 l36 -56 -53 3 c-33 2 -54 -1 -56 -8 -3 -7 12 -30 33
-52 20 -23 34 -41 31 -41 -2 0 -26 10 -53 22 -42 19 -66 23 -169 23 -112 0
-124 -2 -183 -29 -34 -16 -61 -34 -59 -40 2 -6 28 -17 58 -24 69 -17 249 -82
249 -91 0 -3 -23 -17 -51 -31 -60 -29 -142 -97 -136 -114 2 -7 47 -13 121 -16
l118 -5 -19 -22 c-20 -23 -37 -59 -68 -148 -27 -77 -32 -266 -10 -394 9 -57
21 -138 25 -180 4 -42 15 -139 23 -216 9 -77 21 -196 27 -265 7 -69 18 -161
26 -205 18 -99 29 -264 21 -297 -11 -44 -99 -64 -144 -33 -25 17 -41 4 -18
-15 8 -7 15 -23 15 -36 0 -13 14 -39 31 -59 19 -21 28 -40 23 -45 -5 -4 -85
-38 -179 -74 -286 -110 -319 -124 -323 -136 -5 -15 15 -9 113 32 39 16 117 47
175 70 58 22 119 46 135 53 17 7 55 23 85 35 30 12 80 32 110 45 30 13 98 38
150 55 139 47 252 91 246 97 -3 3 -24 -2 -47 -11 -23 -9 -44 -15 -46 -12 -9 9
30 70 75 118 60 64 143 111 210 118 28 3 52 2 52 -2 0 -5 -21 -18 -47 -31 -48
-23 -82 -59 -87 -93 -2 -10 -12 -20 -24 -22 -28 -4 -72 -47 -72 -71 0 -29 24
-48 84 -65 69 -20 130 -20 150 0 19 18 21 70 4 77 -26 11 18 7 95 -8 109 -21
138 -19 181 10 32 22 44 24 92 19 44 -6 58 -3 74 11 21 19 26 60 10 85 -7 11
-2 17 21 27 21 9 29 19 29 38 0 17 7 28 23 34 12 5 56 21 97 37 86 32 460 179
505 199 17 7 41 16 55 20 14 4 35 13 46 20 37 24 237 87 275 87 19 1 51 -4 70
-10 18 -7 111 -36 204 -67 240 -78 302 -99 369 -129 32 -14 64 -26 71 -26 7 0
26 -7 41 -15 19 -10 58 -15 114 -15 111 0 173 29 225 104 34 51 69 155 59 180
-3 8 -1 16 4 19 4 4 22 -29 38 -71 l29 -77 3 85 c2 47 -2 103 -8 125 -9 28 -9
40 -1 43 15 5 14 29 -1 35 -10 3 -10 10 2 31 14 26 13 29 -9 47 -22 18 -25 18
-42 3 -18 -16 -20 -16 -38 0 -12 11 -21 14 -26 7 -11 -18 -23 -12 -33 17 -5
15 -35 54 -65 87 -49 52 -54 61 -39 70 9 5 19 10 22 10 3 1 23 9 45 19 22 10
63 26 90 36 71 25 105 42 105 52 0 8 -68 -16 -209 -76 l-84 -36 -65 58 c-89
79 -173 142 -190 142 -8 0 -26 13 -40 28 -37 39 -100 77 -141 85 -25 5 -42 2
-65 -12 -26 -16 -39 -18 -71 -11 -22 5 -85 10 -141 10 -85 0 -103 -3 -117 -18
-23 -25 -21 -78 3 -102 18 -18 33 -20 143 -20 68 0 126 -3 130 -6 3 -3 -3 -20
-14 -37 -10 -18 -19 -41 -19 -51 0 -11 -8 -28 -17 -38 -12 -14 -18 -38 -18
-84 -1 -63 0 -66 34 -95 20 -16 45 -29 56 -29 16 0 14 -4 -11 -19 -18 -11 -40
-21 -50 -22 -11 -2 -76 20 -146 49 -69 28 -135 52 -145 52 -16 1 -16 2 -2 13
24 19 39 52 39 89 0 40 -32 164 -51 200 -42 80 -81 137 -118 173 -23 21 -41
42 -41 45 0 3 22 5 49 6 56 1 115 37 132 82 5 14 23 40 39 59 72 82 137 253
126 334 -8 60 -47 165 -91 245 -36 66 -37 100 -4 130 18 16 20 16 37 1 28 -25
45 -21 84 21 20 20 44 42 54 48 18 11 17 14 -13 46 -23 23 -33 44 -33 65 0 27
-4 31 -32 36 -18 3 -37 1 -42 -4 -6 -5 -24 -9 -42 -9 -47 0 -70 -26 -84 -96
-17 -84 -25 -95 -50 -66 -63 76 -223 178 -343 219 -102 36 -179 21 -266 -52
-17 -15 -31 -24 -31 -21 0 9 43 95 69 139 26 42 13 50 -18 11z m-1781 -89 c34
-19 66 -35 71 -35 10 0 33 -40 26 -46 -7 -8 -197 81 -197 93 0 10 14 20 32 22
3 1 34 -15 68 -34z m2033 -15 c49 -14 38 -30 -21 -30 -49 0 -133 -34 -139 -56
-3 -8 42 -14 149 -18 211 -9 228 -15 314 -100 95 -94 148 -175 190 -285 38
-102 44 -171 19 -242 -18 -50 -95 -208 -110 -225 -5 -6 -24 -27 -41 -46 -46
-52 -62 -58 -171 -58 -111 0 -137 11 -148 60 -4 16 -39 79 -79 140 -50 75 -70
113 -62 118 6 5 43 24 81 43 57 27 85 34 148 37 93 5 157 -11 189 -45 l23 -25
-30 -24 c-16 -13 -33 -24 -37 -24 -5 0 -8 -4 -8 -10 0 -17 36 -11 64 11 34 27
34 63 -2 99 -37 36 -87 50 -185 50 -75 0 -83 -2 -193 -57 -100 -49 -125 -67
-202 -143 -170 -170 -302 -224 -450 -186 -62 16 -180 72 -213 102 -12 11 -19
12 -24 4 -13 -21 99 -89 220 -132 50 -17 120 -49 157 -71 82 -47 176 -147 139
-147 -5 0 -11 6 -14 13 -8 22 -183 107 -263 127 -53 14 -111 20 -183 20 -177
0 -332 47 -391 118 -39 47 -54 34 -30 -26 58 -148 88 -322 62 -368 -9 -17 -12
-16 -29 14 -31 55 -58 42 -119 -58 -49 -82 -53 -85 -94 -91 -42 -6 -76 -32
-106 -85 -10 -17 -13 -13 -33 31 -65 145 -86 232 -85 360 0 86 5 112 31 185
53 146 75 193 128 265 61 82 102 119 206 185 137 87 179 102 399 145 79 15
251 62 294 80 42 18 2 -16 -75 -64 -80 -49 -94 -77 -22 -44 21 10 40 21 43 24
3 3 26 20 53 38 26 17 47 35 47 39 0 4 14 16 32 26 17 11 72 58 123 105 169
159 247 222 290 234 27 8 111 1 158 -13z m92 -65 c27 -12 19 -13 -84 -14 -84
-1 -112 2 -104 10 29 29 125 31 188 4z m475 -16 c6 -22 18 -43 26 -46 7 -3 14
-10 14 -16 0 -12 -70 -87 -81 -87 -3 0 -19 27 -35 60 -22 48 -33 60 -51 60
-23 0 -28 14 -17 44 3 9 9 14 13 12 3 -3 22 -1 41 4 70 16 78 13 90 -31z
m-2460 7 c0 -7 -7 -19 -15 -26 -12 -10 -15 -9 -15 7 0 11 3 23 7 26 11 12 23
8 23 -7z m24 -31 c-4 -8 -10 -13 -15 -10 -4 3 -6 12 -3 20 4 8 10 13 15 10 4
-3 6 -12 3 -20z m84 -71 c7 -10 33 -48 57 -83 25 -36 45 -69 45 -76 0 -6 16
-35 35 -64 22 -33 32 -58 27 -63 -13 -13 -20 -4 -117 147 -45 72 -92 142 -104
157 -13 16 -19 33 -14 44 5 15 10 13 32 -13 14 -16 32 -38 39 -49z m2248 15
c15 -30 15 -32 -6 -46 -12 -9 -30 -29 -40 -45 -17 -29 -19 -29 -29 -10 -8 14
-8 36 1 76 9 49 14 56 34 56 16 0 29 -10 40 -31z m-2146 -284 c18 -29 27 -35
57 -35 30 0 35 3 30 20 -6 24 4 25 49 4 86 -41 112 -133 54 -189 -35 -34 -16
-46 -189 122 l-116 113 47 0 c42 0 48 -3 68 -35z m-156 -34 c63 -22 172 -88
202 -123 19 -21 19 -21 -1 -13 -11 5 -74 9 -140 10 -99 1 -128 5 -166 23 -25
12 -82 33 -125 47 -43 14 -86 28 -94 31 -12 4 -11 8 5 17 72 41 216 45 319 8z
m166 -155 c56 -18 130 -54 130 -64 -2 -26 -41 -51 -90 -57 -85 -11 -429 5
-424 19 7 18 109 77 168 98 62 21 155 23 216 4z m1573 -178 c46 -57 82 -121
160 -288 15 -30 46 -87 71 -127 95 -151 85 -251 -39 -400 -88 -106 -148 -156
-241 -200 -50 -24 -98 -43 -106 -43 -8 0 -18 -4 -24 -9 -5 -5 -75 -21 -156
-37 -80 -16 -144 -32 -142 -36 7 -11 58 -10 90 2 15 6 30 8 33 4 3 -4 -1 -9
-9 -12 -22 -7 -120 -111 -120 -128 0 -26 17 -15 56 36 37 49 74 69 59 33 -14
-33 -18 -73 -7 -73 6 0 17 27 24 60 11 57 14 61 60 85 57 30 83 33 73 8 -3
-10 -9 -29 -12 -43 -3 -16 -24 -38 -56 -60 -37 -26 -58 -49 -75 -85 -41 -87
-71 -105 -107 -65 -15 16 -26 19 -49 14 -40 -9 -96 -35 -96 -46 0 -13 32 -9
60 7 33 19 60 19 82 -2 21 -19 23 -33 6 -33 -7 0 -26 -7 -41 -15 -47 -24 -93
-29 -124 -11 -15 9 -40 20 -55 26 -18 6 -36 26 -52 58 -13 26 -42 71 -64 98
-34 44 -40 58 -44 118 -6 66 -5 68 16 61 11 -3 45 -11 74 -18 34 -7 51 -16 48
-24 -6 -15 82 -123 100 -123 22 0 17 14 -17 46 -17 16 -39 41 -50 56 l-19 27
56 -6 c42 -5 55 -3 50 5 -4 7 -15 12 -24 12 -21 0 -143 28 -196 45 -36 11 -40
17 -53 66 -20 80 -64 168 -112 224 -24 28 -53 61 -64 75 -84 98 -99 121 -85
137 9 11 13 45 12 107 -1 77 -6 103 -32 170 -18 44 -30 81 -28 83 1 2 27 -10
57 -27 72 -39 163 -58 349 -70 203 -13 274 -36 400 -128 77 -57 88 -70 92
-105 3 -35 28 -50 28 -17 0 12 -14 55 -31 97 -36 86 -89 145 -178 196 l-56 32
48 7 c104 15 200 74 327 202 41 42 80 76 87 76 6 0 27 -19 46 -42z m-1503 27
c0 -2 -18 -42 -41 -87 -84 -171 -106 -272 -90 -406 13 -108 41 -202 87 -296
27 -55 33 -80 33 -130 -1 -71 8 -111 30 -146 19 -29 19 -32 10 -280 -8 -216
-27 -313 -75 -393 -23 -38 -34 -46 -63 -50 -20 -2 -37 -3 -38 -2 -2 1 5 35 14
76 12 54 16 118 16 234 -2 168 -47 697 -64 742 -5 14 -7 33 -4 43 3 9 -4 86
-15 171 -12 85 -24 192 -27 239 -5 79 -3 91 21 142 44 92 80 136 118 141 53 6
88 7 88 2z m-160 -10 c0 -3 -10 -22 -23 -43 -34 -55 -68 -132 -74 -166 -2 -17
8 -123 23 -236 15 -113 29 -227 31 -255 2 -27 11 -113 19 -190 50 -483 54
-726 14 -845 -32 -97 -40 -96 -41 6 0 92 -7 162 -33 349 -8 61 -20 169 -26
240 -10 119 -25 239 -51 400 -22 140 -36 377 -27 473 12 134 28 180 87 245 19
20 34 27 63 27 21 0 38 -2 38 -5z m1901 -295 c85 0 259 -274 259 -408 0 -48
-12 -64 -75 -96 -113 -58 -213 -200 -247 -348 -13 -58 -36 -85 -54 -65 -15 17
-34 109 -34 168 0 54 -9 41 139 212 66 76 96 148 95 227 -1 75 -19 120 -94
234 -54 82 -58 91 -34 82 9 -3 29 -6 45 -6z m739 -131 c37 -20 60 -39 45 -39
-22 0 -145 43 -145 51 0 16 59 9 100 -12z m-405 -19 c-19 -37 -13 -50 22 -50
34 0 63 27 63 58 0 24 1 25 58 18 71 -8 355 -82 396 -103 17 -9 45 -28 62 -42
17 -14 44 -36 60 -49 77 -59 235 -229 258 -277 43 -92 59 -149 60 -221 1 -61
-3 -78 -34 -139 -38 -75 -64 -96 -148 -121 -45 -13 -64 -14 -125 -4 -40 7 -84
18 -98 26 -34 17 -234 84 -251 84 -7 0 -30 9 -51 20 -56 30 -185 76 -268 94
-40 10 -80 21 -90 26 -26 14 -168 32 -195 26 -41 -11 -26 -26 23 -26 26 0 43
-4 38 -8 -17 -14 -145 -55 -152 -48 -9 9 35 136 70 196 17 30 55 79 83 108 68
68 81 68 219 7 17 -8 53 -23 80 -35 28 -12 100 -46 160 -75 243 -117 363 -165
398 -158 23 4 27 2 27 -16 0 -12 -6 -37 -14 -56 -17 -40 -7 -53 19 -26 44 49
24 159 -43 233 -34 38 -35 38 -111 38 -100 0 -169 32 -221 103 -23 30 -36 42
-38 32 -4 -19 -11 -19 -37 1 -28 21 -31 133 -4 152 10 7 17 24 17 40 -1 36 17
69 42 77 11 3 20 12 20 19 0 21 -111 40 -202 33 -90 -6 -128 5 -128 36 0 21
26 57 42 57 5 0 1 -14 -7 -30z m55 -3 c0 -17 -20 -37 -37 -37 -18 0 -16 15 3
34 19 19 34 21 34 3z m-1804 -149 c16 -31 41 -62 163 -201 109 -127 141 -228
146 -467 2 -74 6 -146 9 -160 5 -21 1 -28 -25 -42 -17 -10 -43 -18 -57 -18
-23 1 -31 9 -55 64 -33 73 -40 100 -67 256 -12 63 -26 131 -31 150 -18 58 -61
150 -70 150 -5 0 -9 7 -9 15 0 8 -10 24 -22 35 -25 23 -103 77 -121 83 -8 3
-7 10 4 23 9 10 29 44 45 74 43 82 63 90 90 38z m-151 -161 c11 -5 45 -26 76
-46 47 -30 61 -46 88 -101 31 -66 61 -166 61 -207 0 -53 -81 -67 -213 -37 -59
14 -78 23 -106 53 -82 86 -98 202 -41 291 18 28 40 54 49 60 17 9 52 4 86 -13z
m2195 -152 c7 -8 37 -29 68 -47 47 -26 69 -32 136 -36 88 -5 113 -18 143 -76
18 -34 4 -50 -37 -40 -36 8 -326 136 -368 163 l-23 14 28 18 c34 23 37 23 53
4z m-800 -167 c1 -40 7 -91 15 -113 8 -21 12 -42 9 -44 -14 -15 -160 -59 -168
-51 -12 12 8 118 35 180 20 46 72 97 102 99 4 1 7 -32 7 -71z m-141 -42 c-12
-29 -22 -76 -24 -118 l-4 -71 -46 -20 c-25 -11 -47 -18 -49 -16 -2 2 -6 28 -8
58 -4 46 -1 58 20 83 14 16 37 35 51 40 20 9 22 12 9 15 -9 2 -28 -3 -43 -13
-33 -21 -41 -13 -22 23 11 20 31 34 74 49 32 12 59 20 61 19 1 -1 -7 -23 -19
-49z m-1284 -41 c63 -22 214 -32 244 -16 23 13 24 12 35 -41 5 -22 -1 -34 -38
-68 -42 -40 -166 -214 -186 -262 -5 -13 -31 -45 -59 -72 -50 -49 -62 -68 -80
-118 -11 -30 -88 -71 -157 -84 -22 -4 -55 -14 -74 -21 l-35 -15 21 22 c15 15
36 23 64 24 57 3 89 40 123 142 46 139 57 213 57 391 0 157 1 165 18 151 9 -9
40 -24 67 -33z m1125 -129 c0 -24 2 -50 5 -58 4 -9 -18 -22 -66 -41 -40 -15
-73 -26 -75 -24 -2 2 5 22 16 45 11 22 20 45 20 51 0 9 78 68 93 70 4 1 7 -19
7 -43z m-803 -94 c17 -53 30 -99 27 -101 -3 -3 -46 -7 -97 -9 -67 -3 -101 -9
-124 -22 -18 -11 -33 -16 -33 -11 0 33 159 241 184 241 6 -1 25 -44 43 -98z
m279 -27 l14 -35 -37 0 c-21 0 -43 4 -49 8 -12 8 -26 116 -17 138 6 17 67 -58
89 -111z m79 -76 c5 -6 3 -9 -7 -9 -17 0 -31 -24 -21 -34 10 -9 52 -7 73 4 13
7 21 6 30 -5 10 -12 8 -16 -13 -24 -14 -5 -34 -7 -46 -4 -23 6 -28 -6 -9 -25
9 -9 7 -12 -11 -12 -49 0 -82 -40 -45 -54 25 -10 59 -7 72 6 17 17 28 2 12
-17 -14 -17 -72 -20 -101 -4 -16 8 -26 5 -55 -20 -38 -34 -87 -40 -169 -22
-22 5 -66 12 -97 16 -49 5 -58 4 -58 -9 0 -9 6 -16 13 -16 8 -1 6 -5 -4 -13
-11 -8 -14 -18 -8 -32 8 -19 8 -19 15 3 8 27 34 29 34 2 0 -31 -42 -52 -87
-44 -59 11 -123 44 -123 64 0 24 29 48 64 52 24 3 29 8 31 36 3 43 19 59 69
74 22 6 52 25 66 40 22 26 33 29 90 32 36 2 83 10 105 20 43 17 160 15 180 -5z
m0 -129 c3 -6 -1 -13 -10 -16 -19 -8 -30 0 -20 15 8 14 22 14 30 1z m-1075
-220 c-12 -23 -48 -40 -67 -33 -10 4 -43 57 -43 70 0 1 15 3 33 3 17 1 43 7
57 15 23 13 25 12 28 -10 2 -13 -2 -33 -8 -45z"/>
<path d="M2681 3171 c-11 -7 -11 -15 -2 -44 22 -66 -29 -118 -138 -142 -47
-10 -45 -20 10 -49 34 -17 67 -26 99 -26 31 0 52 -5 60 -16 16 -18 81 -47 89
-38 3 3 7 26 8 51 1 26 10 54 19 64 16 17 15 19 -14 36 -31 18 -42 38 -42 82
0 19 -2 21 -15 11 -11 -10 -18 -9 -30 4 -9 9 -13 20 -10 26 3 5 2 10 -4 10 -5
0 -11 9 -13 20 -2 14 -7 17 -17 11z m52 -105 c9 -7 17 -18 17 -24 0 -6 11 -23
24 -39 17 -20 22 -34 15 -44 -5 -8 -9 -29 -9 -46 0 -40 -9 -41 -48 -8 -23 19
-41 25 -80 25 -34 0 -57 6 -73 19 l-23 18 25 8 c64 19 108 49 114 77 7 31 12
33 38 14z"/>
<path d="M2027 2783 c-15 -14 -5 -20 46 -26 28 -4 63 -9 76 -13 38 -11 20 19
-20 33 -38 13 -92 17 -102 6z"/>
<path d="M1364 2581 c-27 -16 -54 -63 -54 -92 0 -20 17 -7 35 27 10 19 32 42
47 50 16 8 26 19 23 24 -9 14 -16 13 -51 -9z"/>
<path d="M2335 2446 c-93 -44 -165 -148 -165 -237 0 -52 13 -49 35 7 23 61
120 164 184 194 31 16 50 31 48 40 -4 24 -48 22 -102 -4z"/>
<path d="M1425 2161 c-44 -11 -125 -61 -125 -77 0 -17 3 -17 65 1 77 24 249
21 322 -5 90 -32 93 -33 93 -22 0 18 -98 83 -147 98 -48 15 -157 17 -208 5z"/>
<path d="M2360 2144 c0 -21 -17 -44 -73 -98 -102 -100 -134 -125 -200 -157
-154 -73 -409 -59 -503 27 -28 27 -44 31 -44 11 0 -17 25 -39 69 -62 l33 -17
-20 -21 c-35 -38 -34 -59 3 -101 32 -35 37 -38 59 -28 20 9 27 23 37 72 l12
61 71 -7 c91 -8 222 9 287 38 29 12 81 45 116 74 69 57 83 59 158 29 18 -7 48
-9 75 -6 37 5 44 10 42 26 -6 30 -63 107 -83 112 -14 4 -18 13 -16 36 1 17 -3
32 -10 34 -9 3 -13 -5 -13 -23z m-703 -339 c-21 -33 -37 -44 -37 -26 0 12 40
61 50 61 5 0 -1 -16 -13 -35z m16 -65 c3 -11 1 -20 -4 -20 -5 0 -9 9 -9 20 0
11 2 20 4 20 2 0 6 -9 9 -20z"/>
<path d="M1600 1446 c0 -21 27 -81 43 -94 26 -22 25 -1 -2 53 -25 53 -41 69
-41 41z"/>
<path d="M904 1766 c-7 -18 7 -83 31 -139 15 -37 79 -87 110 -87 28 0 16 17
-26 35 -45 21 -74 66 -85 134 -8 49 -2 51 69 15 74 -37 131 -87 152 -131 19
-40 34 -55 46 -47 12 7 -51 101 -92 139 -43 39 -118 79 -167 90 -25 5 -33 3
-38 -9z"/>
<path d="M1347 1097 c-15 -11 -16 -15 -5 -24 16 -14 136 -24 163 -14 19 8 19
8 0 18 -11 6 -38 14 -60 17 -22 4 -49 10 -60 12 -11 3 -28 -1 -38 -9z"/>
<path d="M1475 1007 c-31 -26 -27 -47 9 -47 31 0 59 23 54 46 -5 28 -32 28
-63 1z m31 -19 c-10 -6 -20 -7 -24 -3 -9 8 20 25 31 18 5 -3 2 -10 -7 -15z"/>
<path d="M1187 896 c-3 -8 -2 -18 4 -22 16 -9 22 2 11 21 -8 15 -10 16 -15 1z"/>
<path d="M3870 3281 c0 -5 7 -11 15 -15 9 -3 15 0 15 9 0 8 -7 15 -15 15 -8 0
-15 -4 -15 -9z"/>
<path d="M3745 3228 c-48 -66 -50 -77 -6 -28 22 25 41 51 41 58 0 18 -2 16
-35 -30z"/>
<path d="M3916 3235 c-17 -7 -24 -15 -18 -19 15 -9 -7 -46 -27 -46 -8 0 -12
-3 -8 -6 3 -3 -4 -15 -15 -26 -14 -14 -27 -18 -44 -14 -27 7 -32 -8 -8 -22 15
-8 15 -13 4 -38 -12 -26 -17 -29 -54 -26 l-41 3 23 -20 c44 -39 20 -53 -45
-26 -45 19 -49 19 -33 -1 25 -29 133 -60 129 -36 -4 24 3 42 16 42 21 0 45 42
40 68 -3 15 1 22 12 22 14 0 123 106 123 120 0 3 -6 13 -12 22 -11 13 -18 14
-42 3z"/>
<path d="M2 3080 c0 -14 2 -19 5 -12 2 6 2 18 0 25 -3 6 -5 1 -5 -13z"/>
<path d="M3980 2530 c-12 -7 -12 -12 0 -34 7 -14 15 -24 18 -21 3 2 -1 12 -8
21 -12 13 -11 17 0 24 8 5 12 11 9 14 -2 3 -11 1 -19 -4z"/>
<path d="M2945 1285 c-44 -8 -125 -26 -180 -40 -55 -15 -135 -35 -178 -45 -78
-18 -91 -24 -93 -41 -1 -5 -2 -13 -3 -18 0 -5 -16 -11 -33 -15 -18 -3 -86 -20
-151 -37 -98 -27 -121 -30 -140 -20 -14 7 -52 11 -97 9 -75 -3 -75 -3 -91 -38
-10 -19 -15 -38 -12 -42 2 -5 0 -8 -6 -8 -5 0 -42 -15 -83 -34 -104 -48 -268
-112 -308 -121 -19 -4 -46 -14 -58 -22 -21 -13 -23 -20 -17 -51 4 -21 13 -48
20 -62 7 -14 28 -56 47 -95 18 -38 35 -72 38 -75 10 -10 41 -68 86 -160 26
-52 50 -97 54 -100 3 -3 9 -13 13 -22 7 -21 20 -17 97 29 30 18 62 33 71 33 8
0 19 4 25 8 5 5 32 17 59 26 28 10 59 21 70 25 50 19 125 44 185 62 137 39
165 53 163 80 -2 20 7 28 60 53 34 15 98 45 142 66 56 26 125 48 230 70 174
37 270 65 305 89 14 9 44 23 67 29 23 7 44 16 47 20 2 4 -20 58 -49 119 -30
62 -57 124 -61 140 -7 27 -77 167 -96 191 -12 14 -17 14 -123 -3z m152 -112
c26 -54 51 -101 55 -104 4 -3 9 -17 10 -32 1 -15 6 -27 11 -27 5 0 7 -7 3 -15
-3 -8 -2 -15 2 -15 8 0 42 -73 42 -90 0 -6 5 -10 10 -10 6 0 10 -9 10 -19 0
-19 -18 -31 -45 -31 -8 0 -36 -13 -62 -28 -27 -16 -67 -32 -88 -36 -22 -4 -53
-11 -70 -16 -83 -25 -255 -60 -268 -54 -9 3 -18 13 -22 22 -8 19 -33 202 -27
202 1 0 12 -9 24 -20 12 -10 25 -17 30 -14 14 9 9 32 -10 38 -33 11 -68 60
-86 118 -21 67 -50 108 -77 108 -10 0 -19 3 -19 8 0 14 413 110 482 111 l46 1
49 -97z m-550 -94 c-23 -13 -22 -29 2 -29 37 0 70 -41 76 -95 l6 -50 -19 41
c-46 96 -109 97 -249 2 -48 -32 -51 -44 -24 -102 27 -59 51 -125 51 -139 0 -6
-10 -23 -21 -37 l-20 -25 6 38 c6 38 -10 104 -42 175 -15 31 -38 47 -27 17 4
-9 0 -15 -9 -15 -17 0 -22 12 -32 76 -7 48 -9 47 144 89 51 14 110 37 129 50
20 14 38 22 41 19 3 -3 -2 -10 -12 -15z m-371 -47 c11 -15 35 -74 53 -132 43
-140 46 -151 27 -120 -33 55 -13 5 24 -62 23 -39 39 -77 36 -84 -5 -13 -54
-31 -60 -23 -33 45 -96 158 -101 180 -4 16 -13 29 -20 29 -8 0 -17 5 -21 11
-4 8 3 9 24 4 27 -5 33 -3 45 22 16 31 12 53 -12 68 -23 14 -33 13 -58 -2 -22
-13 -40 -3 -28 17 8 13 -22 70 -38 71 -17 2 -20 1 -39 -6 -14 -6 -18 -2 -18
18 0 29 14 33 110 35 49 1 57 -2 76 -26z m-129 -54 c6 -7 13 -29 17 -48 6 -35
5 -36 -46 -62 -29 -15 -77 -36 -106 -48 -96 -37 -119 -64 -87 -100 15 -16 18
-16 53 1 49 26 65 24 84 -8 9 -16 35 -48 57 -72 23 -24 41 -47 41 -50 0 -11
106 -121 117 -121 5 0 19 9 31 20 22 20 22 20 42 0 19 -19 19 -20 0 -30 -25
-14 -37 -13 -22 2 22 22 12 27 -18 10 -16 -9 -30 -22 -30 -28 0 -13 -46 -33
-150 -65 -41 -13 -84 -29 -95 -36 -11 -7 -25 -13 -32 -13 -7 0 -33 -14 -57
-32 -40 -27 -49 -30 -71 -20 -16 7 -23 17 -19 27 4 10 0 15 -11 15 -12 0 -16
6 -12 20 3 11 1 20 -4 20 -5 0 -9 9 -9 20 0 11 -4 20 -10 20 -5 0 -10 9 -10
20 0 11 -4 20 -10 20 -5 0 -10 7 -10 15 0 9 -6 18 -14 21 -8 3 -12 12 -9 20 3
8 0 14 -6 14 -6 0 -11 7 -11 15 0 8 -4 15 -10 15 -5 0 -10 6 -10 14 0 17 -42
100 -52 104 -5 2 -8 12 -8 23 0 10 -5 19 -11 19 -6 0 -9 7 -5 15 3 8 -1 18 -8
22 -7 5 -17 18 -20 31 -6 19 -2 25 30 38 31 13 42 14 58 4 16 -10 18 -9 13 3
-4 11 2 17 23 22 16 4 107 40 202 80 95 41 178 75 184 75 6 0 16 -6 21 -12z
m457 -19 c26 -21 53 -65 51 -84 -5 -51 -57 -139 -78 -132 -11 3 -77 183 -77
209 0 32 67 36 104 7z m-344 -64 c6 -8 8 -20 4 -26 -5 -9 -11 -7 -21 6 -23 33
-9 51 17 20z m485 -26 c4 -17 2 -43 -5 -60 -21 -50 -220 -199 -266 -199 -31 0
-6 24 91 89 111 74 156 122 157 170 1 40 14 40 23 0z m-566 -65 c-11 -13 -10
-15 4 -12 13 2 24 -12 43 -57 47 -113 48 -114 14 -75 -16 19 -40 49 -52 67
-13 18 -34 37 -48 43 l-24 12 24 19 c32 24 59 26 39 3z m85 -79 l6 -30 -14 25
c-7 14 -17 36 -21 50 -7 24 -6 24 8 5 8 -11 17 -33 21 -50z m500 -34 c5 -8
-76 -52 -124 -66 -35 -10 -20 3 48 41 62 36 68 38 76 25z m-406 -111 c7 0 27
7 43 16 32 16 59 7 59 -20 0 -12 -72 -56 -90 -56 -11 0 -100 146 -100 163 0 7
17 -14 38 -45 20 -32 43 -58 50 -58z m128 -57 c20 -27 18 -30 -28 -38 -60 -12
-63 -12 -63 3 0 9 48 43 74 51 2 0 10 -7 17 -16z"/>
<path d="M2912 1105 c-18 -8 -36 -14 -40 -15 -29 -2 -42 -14 -42 -41 0 -34 13
-36 58 -9 34 21 41 20 19 -2 -30 -30 -57 -88 -57 -120 0 -39 34 -79 66 -77 15
0 13 3 -7 10 -15 6 -32 23 -39 38 -10 24 -8 36 11 75 41 88 123 114 173 55 14
-17 26 -39 26 -50 0 -21 19 -27 21 -6 3 25 -3 42 -19 61 -21 24 -99 59 -112
51 -6 -3 -10 3 -10 14 0 28 -10 31 -48 16z"/>
<path d="M2777 1023 c3 -44 0 -103 -6 -135 -11 -50 -15 -57 -38 -60 -26 -3
-26 -4 -9 -21 12 -11 30 -17 49 -15 39 4 47 30 48 161 1 74 -3 103 -15 122
-27 42 -34 29 -29 -52z"/>
<path d="M2650 1064 c0 -18 44 -74 57 -74 20 0 9 48 -15 67 -18 13 -42 17 -42
7z"/>
<path d="M2702 765 c0 -16 2 -22 5 -12 2 9 2 23 0 30 -3 6 -5 -1 -5 -18z"/>
<path d="M2331 990 c-41 -10 -81 -30 -81 -42 0 -11 48 -10 52 1 2 5 10 11 18
13 8 2 17 5 20 8 3 3 16 11 30 17 29 13 11 15 -39 3z"/>
<path d="M1825 878 c-16 -6 -39 -17 -50 -24 -27 -19 3 -19 40 0 15 8 35 12 44
9 13 -4 13 -3 2 5 -11 8 -11 10 0 15 26 10 -6 6 -36 -5z"/>
<path d="M1718 833 c-10 -2 -18 -9 -18 -14 0 -6 10 -5 23 2 37 20 36 23 -5 12z"/>
<path d="M1770 734 c0 -27 36 -74 57 -74 8 0 31 7 50 17 l35 16 42 -48 c24
-26 46 -44 49 -38 3 5 -15 32 -41 61 -47 52 -47 52 -76 37 -45 -24 -71 -19
-95 18 -18 27 -21 29 -21 11z"/>
<path d="M1670 696 c0 -11 21 -49 37 -64 7 -7 13 -19 13 -25 0 -7 10 -23 21
-37 12 -14 5 5 -16 45 -36 69 -55 97 -55 81z"/>
<path d="M2020 578 c1 -26 123 -143 139 -134 6 4 -4 20 -27 39 -45 39 -92 89
-92 100 0 4 -4 7 -10 7 -5 0 -10 -6 -10 -12z"/>
<path d="M1890 520 c-9 -6 -10 -10 -3 -10 6 0 15 5 18 10 8 12 4 12 -15 0z"/>
<path d="M1840 499 c0 -5 9 -30 20 -55 23 -50 50 -57 101 -27 28 17 35 36 23
67 -11 27 -24 17 -18 -13 5 -25 2 -32 -24 -45 -17 -9 -35 -16 -40 -16 -14 0
-54 79 -47 91 4 5 1 9 -4 9 -6 0 -11 -5 -11 -11z"/>
<path d="M1790 485 c7 -9 15 -13 17 -11 7 7 -7 26 -19 26 -6 0 -6 -6 2 -15z"/>
<path d="M2458 929 c-23 -13 -22 -34 2 -84 11 -22 19 -46 20 -53 0 -27 25 -4
36 34 9 29 9 48 0 74 -12 37 -30 46 -58 29z"/>
<path d="M0 1127 c0 -20 4 -37 10 -37 5 0 7 14 3 33 -8 45 -13 47 -13 4z"/>
<path d="M295 1030 c3 -5 8 -10 11 -10 2 0 4 5 4 10 0 6 -5 10 -11 10 -5 0 -7
-4 -4 -10z"/>
<path d="M0 1018 c0 -9 12 -26 27 -38 22 -17 25 -23 13 -30 -13 -8 -13 -10 1
-10 8 0 20 5 27 12 18 18 15 -4 -4 -31 -16 -22 -16 -23 4 -12 29 16 33 26 23
53 -6 12 -10 20 -10 15 -1 -9 -52 22 -68 43 -11 13 -12 13 -13 -2z"/>
<path d="M110 990 c0 -6 7 -10 15 -10 8 0 15 2 15 4 0 2 -7 6 -15 10 -8 3 -15
1 -15 -4z"/>
<path d="M0 949 c0 -5 5 -7 10 -4 5 3 10 8 10 11 0 2 -4 4 -10 4 -5 0 -10 -5
-10 -11z"/>
<path d="M3939 845 c-25 -13 -50 -29 -56 -37 -14 -18 -32 -88 -48 -183 -40
-238 -123 -525 -152 -525 -13 0 -73 -76 -73 -92 0 -4 32 -8 70 -8 70 0 86 10
59 37 -12 12 8 123 21 123 4 0 10 15 14 33 3 17 15 61 25 97 11 36 26 108 35
160 26 150 59 295 68 298 4 2 8 9 8 16 0 7 6 21 14 31 12 17 16 18 32 5 17
-14 18 -14 6 2 -12 15 -11 18 12 24 17 4 26 13 26 25 0 24 -5 23 -61 -6z"/>
<path d="M3935 780 c-3 -5 -1 -10 4 -10 6 0 11 5 11 10 0 6 -2 10 -4 10 -3 0
-8 -4 -11 -10z"/>
<path d="M3888 655 c-3 -14 -1 -25 3 -25 5 0 9 11 9 25 0 14 -2 25 -4 25 -2 0
-6 -11 -8 -25z"/>
<path d="M675 500 c-3 -5 -1 -10 4 -10 6 0 11 5 11 10 0 6 -2 10 -4 10 -3 0
-8 -4 -11 -10z"/>
<path d="M596 472 c-2 -4 3 -13 13 -19 13 -8 17 -7 17 8 0 19 -20 26 -30 11z"/>
<path d="M460 440 c-21 -7 -21 -8 -5 -9 11 0 27 4 35 9 18 11 5 11 -30 0z"/>
<path d="M364 411 c-49 -19 -74 -43 -73 -68 1 -20 66 -79 77 -69 3 4 0 11 -8
16 -12 8 -12 10 4 10 10 0 27 -12 39 -26 l20 -26 23 63 c25 68 25 89 1 42 -14
-27 -18 -28 -76 -25 -52 3 -61 7 -61 23 0 19 19 33 85 61 51 22 23 21 -31 -1z"/>
<path d="M3280 378 c-11 -23 -28 -35 -69 -48 -29 -10 -65 -27 -80 -39 -14 -12
-43 -34 -63 -49 -21 -15 -37 -32 -38 -38 0 -14 48 -25 56 -12 3 5 15 6 27 3
21 -6 21 -5 4 9 -11 8 -25 12 -33 9 -8 -3 -14 -1 -14 3 0 15 51 53 99 74 105
47 136 66 139 84 7 32 -13 35 -28 4z"/>
<path d="M488 295 c-7 -34 9 -45 64 -45 71 0 113 -21 127 -63 6 -18 8 -43 5
-53 -6 -15 -3 -14 12 4 13 15 31 24 54 25 34 2 35 1 35 -33 0 -61 33 -85 98
-72 8 2 -21 53 -37 64 -6 4 -7 11 -2 15 4 4 14 -1 22 -11 8 -11 14 -15 14 -9
0 14 -29 38 -36 30 -3 -3 -19 7 -36 21 -21 19 -41 27 -67 27 -31 0 -36 3 -36
24 0 22 -11 28 -106 62 l-107 38 -4 -24z"/>
<path d="M3261 275 c2 -24 0 -47 -4 -51 -4 -4 -28 -8 -54 -8 -55 -1 -75 -26
-21 -27 18 0 47 -2 65 -3 39 -4 45 8 37 80 -8 65 -27 73 -23 9z"/>
<path d="M756 278 c10 -14 21 -24 23 -22 3 3 -6 15 -18 27 l-24 22 19 -27z"/>
<path d="M305 249 l5 -37 -155 6 c-99 3 -155 1 -155 -5 0 -6 47 -13 108 -16
113 -7 287 -36 337 -56 57 -23 120 -56 183 -99 64 -42 86 -49 110 -33 22 13
11 56 -15 59 -16 2 -23 -2 -23 -12 0 -17 -17 -21 -39 -7 -11 7 -10 14 4 37
l17 29 -21 -23 c-11 -13 -24 -22 -28 -20 -47 20 -113 64 -113 75 0 8 -4 12 -9
9 -12 -8 -146 23 -167 39 -10 7 -24 30 -31 51 l-12 39 4 -36z"/>
<path d="M791 234 c0 -11 3 -14 6 -6 3 7 2 16 -1 19 -3 4 -6 -2 -5 -13z"/>
<path d="M815 190 c3 -5 8 -10 11 -10 2 0 4 5 4 10 0 6 -5 10 -11 10 -5 0 -7
-4 -4 -10z"/>
<path d="M567 169 c6 -6 9 -18 6 -25 -3 -8 0 -14 6 -14 18 0 25 31 10 41 -20
13 -35 11 -22 -2z"/>
<path d="M3118 153 c7 -3 16 -2 19 1 4 3 -2 6 -13 5 -11 0 -14 -3 -6 -6z"/>
<path d="M2990 122 c0 -9 47 -8 57 1 3 4 -8 7 -25 7 -18 0 -32 -4 -32 -8z"/>
<path d="M1046 69 c-38 -21 -77 -39 -87 -39 -10 0 -21 -5 -24 -10 -3 -6 -16
-8 -28 -5 -13 4 -34 2 -47 -4 -21 -8 -17 -10 30 -10 42 -1 69 6 110 27 63 32
130 72 130 78 0 8 -17 1 -84 -37z"/>
<path d="M2938 103 c7 -3 16 -2 19 1 4 3 -2 6 -13 5 -11 0 -14 -3 -6 -6z"/>
<path d="M2878 93 c7 -3 16 -2 19 1 4 3 -2 6 -13 5 -11 0 -14 -3 -6 -6z"/>
<path d="M2790 80 c-23 -7 -23 -8 -3 -9 12 -1 25 4 28 9 3 6 5 10 3 9 -2 -1
-14 -5 -28 -9z"/>
<path d="M3171 85 c0 -5 8 -21 19 -35 11 -14 20 -31 20 -37 0 -14 20 -18 20
-5 0 5 -8 18 -17 30 -10 11 -23 29 -30 39 -6 10 -12 14 -12 8z"/>
<path d="M3750 64 c0 -8 5 -12 10 -9 6 4 8 11 5 16 -9 14 -15 11 -15 -7z"/>
</g>
</svg>
